<svg xmlns="http://www.w3.org/2000/svg" width="145" height="148" fill="none" viewBox="0 0 145 148"><g filter="url(#filter0_d_771_1763)"><path fill="#F7BACD" d="M128.281 66.6988C129.061 78.7932 126.295 90.8525 120.321 101.398C114.348 111.943 105.427 120.515 94.6519 126.064L66.1451 70.7084L128.281 66.6988Z"/></g><path fill="#FFEEB0" d="M40.717 3.98429C40.717 2.14896 42.2048 0.661133 44.0402 0.661133H87.4562C89.2916 0.661133 90.7794 2.14896 90.7794 3.98429V10.6428C90.7794 12.4782 89.2916 13.966 87.4562 13.966H84.6947V6.97531H46.8017V13.966H44.0402C42.2048 13.966 40.717 12.4782 40.717 10.6428V3.98429Z"/><path fill="#F4CC3F" d="M41.3351 4.82121C41.3351 2.98588 42.823 1.49805 44.6583 1.49805H88.0744C89.9097 1.49805 91.3975 2.98588 91.3975 4.82121V11.4798C91.3975 13.3151 89.9097 14.8029 88.0744 14.8029H85.3128V7.81223H47.4198V14.8029H44.6583C42.8229 14.8029 41.3351 13.3151 41.3351 11.4798V4.82121Z"/><g filter="url(#filter1_d_771_1763)"><path fill="#E8356D" d="M47.7507 7.73438H85.6357V34.5641L66.6932 47.8545L47.7507 34.5641V7.73438Z"/><mask id="mask0_771_1763" style="mask-type:alpha" width="39" height="41" x="47" y="7" maskUnits="userSpaceOnUse"><path fill="#E8356D" d="M47.8129 7.73438H85.6804V34.5685L66.7466 47.8545L47.8129 34.5685V7.73438Z"/></mask><g mask="url(#mask0_771_1763)"><rect width="14.502" height="56.045" x="59.495" y="-8.19" fill="#3D0072"/></g><rect width="6.089" height="10.373" x="63.525" y="40.821" fill="#C09525" rx="3.044"/><circle cx="66.087" cy="75.499" r="26.723" fill="url(#paint0_linear_771_1763)"/><circle cx="66.58" cy="75.499" r="20.859" fill="#705100"/><path fill="#E8356D" d="M85.8139 24.5391L47.691 24.5391L47.691 7.78174L85.8139 7.78175L85.8139 24.5391Z" opacity=".5"/></g><circle cx="64.684" cy="75.086" r="20.431" fill="#6C570D"/><circle cx="66.144" cy="75.572" r="20.431" fill="#FFDA55"/><circle cx="65.83" cy="74.781" r="14.569" fill="url(#paint1_linear_771_1763)" opacity=".8"/><path fill="url(#paint2_linear_771_1763)" d="M66.0026 65.8428L68.8718 71.6801L74.6102 72.4098L70.6698 76.9045L71.741 83.3547L66.0026 80.4361L60.2642 83.3547L61.345 76.9045L57.3951 72.4098L63.1334 71.6801L66.0026 65.8428Z"/><path stroke="#A36D1D" stroke-opacity=".2" stroke-width=".345" d="M66.1573 65.7668L66.0026 65.4521L65.848 65.7668L63.0197 71.5208L57.3733 72.2388L57.0514 72.2797L57.2656 72.5235L61.1615 76.9567L60.0943 83.3262L60.0378 83.6632L60.3424 83.5083L66.0026 80.6294L71.6629 83.5083L71.9669 83.6629L71.911 83.3265L70.8532 76.9567L74.7398 72.5234L74.9534 72.2797L74.6319 72.2388L68.9856 71.5208L66.1573 65.7668Z"/><defs><filter id="filter0_d_771_1763" width="94.265" height="91.365" x="50.145" y="55.699" color-interpolation-filters="sRGB" filterUnits="userSpaceOnUse"><feFlood flood-opacity="0" result="BackgroundImageFix"/><feColorMatrix in="SourceAlpha" result="hardAlpha" type="matrix" values="0 0 0 0 0 0 0 0 0 0 0 0 0 0 0 0 0 0 127 0"/><feOffset dy="5"/><feGaussianBlur stdDeviation="8"/><feComposite in2="hardAlpha" operator="out"/><feColorMatrix type="matrix" values="0 0 0 0 0.0375308 0 0 0 0 0.0278819 0 0 0 0 0.0458333 0 0 0 0.24 0"/><feBlend in2="BackgroundImageFix" mode="normal" result="effect1_dropShadow_771_1763"/><feBlend in="SourceGraphic" in2="effect1_dropShadow_771_1763" mode="normal" result="shape"/></filter><filter id="filter1_d_771_1763" width="59.543" height="100.585" x="38.983" y="7.353" color-interpolation-filters="sRGB" filterUnits="userSpaceOnUse"><feFlood flood-opacity="0" result="BackgroundImageFix"/><feColorMatrix in="SourceAlpha" result="hardAlpha" type="matrix" values="0 0 0 0 0 0 0 0 0 0 0 0 0 0 0 0 0 0 127 0"/><feOffset dx="2.668" dy="2.668"/><feGaussianBlur stdDeviation="1.525"/><feComposite in2="hardAlpha" operator="out"/><feColorMatrix type="matrix" values="0 0 0 0 0 0 0 0 0 0 0 0 0 0 0 0 0 0 0.3 0"/><feBlend in2="BackgroundImageFix" mode="normal" result="effect1_dropShadow_771_1763"/><feBlend in="SourceGraphic" in2="effect1_dropShadow_771_1763" mode="normal" result="shape"/></filter><linearGradient id="paint0_linear_771_1763" x1="66.087" x2="66.087" y1="48.776" y2="102.221" gradientUnits="userSpaceOnUse"><stop stop-color="#FFE176"/><stop offset="1" stop-color="#FFD12D"/></linearGradient><linearGradient id="paint1_linear_771_1763" x1="65.83" x2="65.83" y1="60.212" y2="89.35" gradientUnits="userSpaceOnUse"><stop stop-color="#D79B00"/><stop offset="1" stop-color="#FFDD64"/></linearGradient><linearGradient id="paint2_linear_771_1763" x1="66.003" x2="66.003" y1="65.843" y2="83.355" gradientUnits="userSpaceOnUse"><stop stop-color="#fff"/><stop offset="0" stop-color="#FFFFFD"/><stop offset="1" stop-color="#FFE86D"/></linearGradient></defs></svg>