<svg xmlns="http://www.w3.org/2000/svg" width="45" height="49" fill="none" viewBox="0 0 45 49"><path fill="#fff" d="M16.9115 10.3512C16.9115 13.5587 16.9115 16.7755 16.9302 19.9829C16.9302 22.7508 16.0325 25.444 13.461 26.8653C10.4592 28.5111 6.19511 28.0903 2.8474 27.7443C2.71649 27.7443 2.60427 27.7163 2.48271 27.7069C2.59492 25.3972 2.54817 23.0594 2.43595 20.759C2.29569 17.6358 4.18462 13.914 7.54168 13.3903C11.1793 12.8199 14.3493 12.4272 16.0699 10.4167C16.126 10.3606 16.1821 10.2951 16.2289 10.2297C16.4814 9.88366 16.7526 9.55637 17.0237 9.21973C16.9396 9.58442 16.9115 9.96782 16.9115 10.3419V10.3512Z"/><path fill="#fff" d="M5.90375 48.6636C8.40985 48.8226 10.9347 48.7852 13.4408 48.8319C16.3677 48.8787 19.3694 49.2434 22.1934 48.7291C26.2518 47.9903 30.8152 45.3439 32.3207 41.4258C33.7141 37.7976 33.0595 33.468 30.6562 30.4195C30.4879 30.2138 30.3102 30.0081 30.1139 29.8023C27.6826 27.1466 23.9141 25.7533 20.3232 26.2302C15.8627 26.8193 11.9352 30.326 10.7757 34.6743C10.0557 37.3861 10.6822 40.2663 10.2614 43.0249C9.91539 45.3065 7.961 47.6443 5.89439 48.6636H5.90375Z"/><path fill="#fff" d="M30.9781 0C30.7537 0.682634 31.0248 1.42137 31.3147 2.07595C35.0365 10.3704 45.0048 15.9811 44.6588 25.9494C44.4998 30.4567 42.2556 35.7494 38.4871 38.4239C38.2159 38.6202 37.9634 38.7886 37.6455 38.8821C36.9254 37.5355 36.8506 35.5718 36.2428 34.0943C35.476 32.2334 34.4661 30.4099 33.054 28.9698C31.6981 27.5952 30.0056 26.8004 28.6497 25.4538C25.8069 22.6111 24.0115 18.721 23.7777 14.7C23.4411 8.9771 26.3025 3.2916 30.9874 0.0187023L30.9781 0Z"/><path fill="#8807F7" stroke="#fff" stroke-miterlimit="10" stroke-width=".393" d="M5.09097 20.0118C5.09097 20.0118 4.96005 17.5151 7.52227 17.6366C7.52227 17.6366 8.45738 20.3672 5.09097 20.0118Z"/><path fill="#fff" d="M4.24224 41.1827C6.58692 41.1827 8.48766 39.282 8.48766 36.9373C8.48766 34.5926 6.58692 32.6919 4.24224 32.6919C1.89756 32.6919 -0.00318146 34.5926 -0.00318146 36.9373C-0.00318146 39.282 1.89756 41.1827 4.24224 41.1827Z"/></svg>